<?xml version="1.0" encoding="utf-8"?>
<!-- Generator: Adobe Illustrator 21.1.0, SVG Export Plug-In . SVG Version: 6.00 Build 0)  -->
<svg version="1.1" id="graphic" xmlns="http://www.w3.org/2000/svg" xmlns:xlink="http://www.w3.org/1999/xlink" x="0px" y="0px"
	 viewBox="0 0 111.5 76.2" style="enable-background:new 0 0 111.5 76.2;" xml:space="preserve">
<style type="text/css">
	.st0{fill:#FFFFFF;}
</style>
<g>
	<g>
		<g>
			<g>
				<path class="st0" d="M5.4,49.5c-0.8,0.2-1.1,0.3-1.7,0.3l-2.1,0l-0.1,0.2L4,50.2c0.1,0,0.3,0.1,0.6,0.2c1.1,0.4,1.3,0.4,1.7,0.5
					l5.7,0.2l1.1-2.1l-6.2,0.2C6.5,49.2,6,49.3,5.4,49.5z"/>
				<path class="st0" d="M4.7,51.5l-1.4,0.4c-0.1,0-0.2,0.1-0.4,0.1L0.5,52l-0.1,0.2l2.5,0c0.1,0,0.3,0,0.6,0.1
					c0.1,0,0.2,0.1,0.5,0.2c0.3,0.1,0.4,0.1,0.6,0.2c0.4,0.1,0.6,0.1,1,0.1h5.3l1-1.8l-6.2,0.2C5.4,51.3,5.1,51.4,4.7,51.5z"/>
				<path class="st0" d="M6.8,46l1.1,0.4c0.2,0.1,0.6,0.1,0.8,0.2l5.5,0.2l1.1-2L9.1,45c-0.3,0-0.5,0-0.7,0.1L7,45.5
					c-0.3,0.1-0.6,0.1-1,0.1H4l-0.2,0.2l2.5,0.1C6.4,45.9,6.6,46,6.8,46z"/>
				<path class="st0" d="M8.1,43.9c1.2,0.4,1.4,0.5,1.9,0.5l5.5,0.2l1.1-2l-6.4,0.2c-0.2,0-0.5,0-0.8,0.1l-0.6,0.2
					c-0.5,0.1-1.1,0.3-1.2,0.3l-2.5,0L5,43.7l2.5,0.1C7.6,43.8,7.8,43.9,8.1,43.9z"/>
				<path class="st0" d="M8,47.1c-0.3,0-0.6,0-0.8,0.1l-1.5,0.4c-0.1,0.1-0.3,0.1-0.3,0.1l-2.6,0L2.7,48l2,0c0.6,0,0.7,0,1.1,0.2
					l1,0.3c0.3,0.1,0.5,0.1,0.9,0.1l5.5,0.2l1.1-2L8,47.1z"/>
				<path class="st0" d="M12.4,35.3l1.2,0.4c0.4,0.1,0.8,0.2,2.9,0.2l3.4,0.1l1.1-2l-6.2,0.2c-0.3,0-1,0.1-1.6,0.3
					c-0.6,0.2-1,0.3-1.1,0.3l-2.5,0.1l-0.1,0.2l2.4,0.1C12.1,35.2,12.3,35.3,12.4,35.3z"/>
				<path class="st0" d="M14.4,33.4c0.8,0.2,1,0.3,1.4,0.3l5.3,0.2l1.1-2l-6.1,0.2c-0.3,0-1,0.2-1.4,0.3c-0.7,0.2-1.1,0.3-1.3,0.3
					l-2.6,0l-0.1,0.3l2.4,0C13.3,33.1,13.7,33.2,14.4,33.4z"/>
				<path class="st0" d="M14.8,31.1l0.7,0.2c0.4,0.2,0.8,0.2,1.2,0.2l5.5,0.2l0.9-1.8l-5.2,0c-0.5,0-1.2,0.1-1.5,0.1l-1.6,0.4
					c-0.2,0-0.3,0.1-0.5,0.1l-2.5,0l-0.1,0.3l2.3,0C14.3,30.9,14.6,31,14.8,31.1z"/>
				<path class="st0" d="M12.1,37.7c0.6,0.2,0.9,0.3,1.4,0.3l0.5,0l4.8,0.2l1.1-2l-6.2,0.2c-0.2,0-0.4,0-0.7,0.1L11.5,37
					c-0.1,0-0.3,0.1-0.4,0.1l-2.6,0.1l-0.1,0.2l2.1,0.1C11.1,37.4,11.3,37.4,12.1,37.7z"/>
				<path class="st0" d="M11,39.9c0.5,0.2,0.8,0.2,1.3,0.3l5.4,0.2l1.1-2.1l-6.2,0.2c-0.3,0-0.6,0.1-0.9,0.2L10.5,39l-0.5,0.1
					c-0.1,0-0.1,0-0.2,0l-2.6,0.1l-0.1,0.2l2.4,0C9.9,39.5,10.3,39.6,11,39.9z"/>
				<path class="st0" d="M9.6,41.9c0.7,0.2,1.2,0.3,1.5,0.4l5.4,0.2l1.1-2l-6,0.2c-0.4,0-0.3,0-1.4,0.3l-0.9,0.2
					c-0.2,0.1-0.4,0.1-0.5,0.1l-2.6,0.1l-0.1,0.2l2.3,0.1C8.7,41.6,8.8,41.6,9.6,41.9z"/>
				<path class="st0" d="M20.1,39.4l1.5,0c0.7,0,1.2,0.1,1.3,0.1l1.4,0.5c0.2,0,0.3,0.1,1,0.1c0.5,0,1,0,1.4,0l12.5,0.2l1.1-2h-9
					l-6,0.2c-0.3,0-0.9,0.1-1.4,0.3c-0.6,0.2-1,0.3-1.2,0.3l-2.5,0L20.1,39.4z"/>
				<path class="st0" d="M22.3,35.2l2.3,0c0.2,0,0.4,0.1,0.7,0.2l1.3,0.4c0.4,0.1,0.8,0.2,1.2,0.2h13.7l1.1-2l-14.8,0.2
					c-0.4,0-0.9,0.1-2.2,0.5c-0.3,0.1-0.5,0.1-0.7,0.1l-2.5,0L22.3,35.2z"/>
				<path class="st0" d="M23.4,33.1l2.4,0c0.2,0,0.6,0.1,1.2,0.3c0.4,0.2,0.9,0.3,1.2,0.3l14.3,0.2l1.1-2.1l-14.8,0.2
					c-0.2,0-0.5,0-0.7,0.1l-1.6,0.4c-0.2,0.1-0.4,0.1-0.5,0.1l-2.5,0L23.4,33.1z"/>
				<path class="st0" d="M21.2,37.3l2.4,0c0.1,0,0.3,0.1,0.5,0.1l1.2,0.4C25.6,38,25.8,38,26,38l5.7,0.2l1.1-2l-6.2,0.2
					c-0.4,0-0.7,0.1-2.1,0.5C24.1,37,24,37,23.9,37l-2.6,0.1L21.2,37.3z"/>
				<path class="st0" d="M27.7,31.2c0.5,0.2,1.3,0.4,1.6,0.4l14.5,0.2l0.9-1.8H32c-1.5,0-1.8,0-2,0c-0.4,0-0.8,0.1-0.9,0.1l-1.4,0.4
					c-0.2,0.1-0.6,0.1-1,0.1l-2,0l-0.2,0.3l2.6,0.1C27.2,31,27.3,31,27.7,31.2z"/>
				<path class="st0" d="M38.1,42.5l-14.7,0.3c-0.6,0-0.8,0-1.7,0.3L21,43.3c-0.3,0.1-0.5,0.1-0.6,0.1l-2.6,0.1l-0.1,0.2l2.5,0
					c0.4,0,0.7,0.1,1.1,0.4c0.6,0.3,0.9,0.4,1.2,0.4H37L38.1,42.5z"/>
				<path class="st0" d="M39.2,40.4l-14.9,0.2c-0.3,0-0.9,0.1-1.6,0.3c-0.9,0.3-1.2,0.3-1.6,0.3h-2.2l-0.1,0.2l2.5,0.1
					c0.1,0,0.7,0.2,1.6,0.5c0.2,0.1,0.4,0.1,0.6,0.1l14.5,0.2L39.2,40.4z"/>
				<path class="st0" d="M17.9,51.4c-0.2,0-0.3,0.1-0.3,0.1l-0.7,0.2c-0.4,0.1-0.9,0.2-1,0.2l-2.5,0.1l-0.1,0.2l2.5,0.1
					c0.1,0,0.3,0,0.5,0.1l1.1,0.4c0.3,0.1,0.5,0.1,1,0.1h0.9h13.4l1-1.9l-14.8,0.2C18.5,51.3,18.3,51.4,17.9,51.4z"/>
				<path class="st0" d="M20.7,45.2c-0.7,0.2-1.2,0.3-1.3,0.4l-2.6,0l-0.1,0.2l2.4,0.1c0.1,0,0.3,0,0.6,0.1l0.7,0.2
					c0.5,0.2,0.9,0.3,1.1,0.3l5.6,0.2l1.1-2L21.8,45C21.6,45,21.1,45.1,20.7,45.2z"/>
				<path class="st0" d="M27,46.8l-6.2,0.3c-0.3,0-0.6,0.1-0.9,0.2l-1.3,0.4c-0.1,0-0.5,0.1-1,0.1l-1.9,0.1L15.5,48l1.4,0
					c1.1,0,1.3,0,1.7,0.2l1,0.4c0.2,0.1,0.4,0.1,0.6,0.1l14.5,0.2l1.1-2L27,46.8z"/>
				<path class="st0" d="M18.2,49.5c-0.6,0.2-1,0.3-1.2,0.3l-2.5,0.1l-0.1,0.2l2.5,0.1c0.2,0,0.6,0.1,1.2,0.4
					c0.2,0.1,0.3,0.1,0.4,0.1l0.5,0.1h0.1L33.6,51l1.1-2l-14.9,0.2C19.5,49.2,18.7,49.4,18.2,49.5z"/>
				<path class="st0" d="M41.2,46c1.6,0.5,1.4,0.5,2.6,0.6l4.8,0.2l1.1-2l-6.2,0.2c-0.3,0-0.6,0.1-0.9,0.2l-0.4,0.1l-1,0.3
					c-0.1,0-0.2,0.1-0.2,0.1l-2.6,0l-0.1,0.2l2.4,0C40.8,45.9,41,45.9,41.2,46z"/>
				<path class="st0" d="M50.9,42.6l-6.3,0.2c-0.2,0-0.6,0.1-1,0.2l-1.1,0.3c-0.2,0.1-0.3,0.1-0.4,0.1l-2.5,0
					c-0.1,0.1-0.1,0.1-0.1,0.2l2.2,0c0.3,0,0.6,0.1,0.9,0.2l0.8,0.3c0.3,0.1,1,0.2,1.8,0.2l4.7,0.2L50.9,42.6z"/>
				<path class="st0" d="M52,40.4l-6.2,0.2c-0.4,0-1.2,0.2-2.2,0.5c-0.2,0.1-0.3,0.1-0.4,0.1l-2.7,0.1l-0.1,0.2l2.5,0.1
					c0.1,0,0.7,0.2,1.6,0.5c0.2,0.1,0.4,0.1,0.6,0.1l5.7,0.2L52,40.4z"/>
				<path class="st0" d="M40.5,49.3L39,49.8c-0.2,0-0.3,0.1-0.4,0.1l-2.6,0.1L36,50.1l2.4,0.1c0.2,0,0.4,0,0.6,0.1l1,0.3
					c0.3,0.1,0.6,0.2,1.2,0.2l1.2,0l12,0.1l1.1-2l-14.1,0.2C41.1,49.2,40.8,49.2,40.5,49.3z"/>
				<path class="st0" d="M37.9,51.9c-0.2,0-0.3,0.1-0.4,0.1l-2.6,0.1l-0.1,0.2l2.4,0.1c0.2,0,0.3,0,0.4,0.1l1.2,0.4
					c0.3,0.1,0.7,0.2,1.3,0.2h1.7h11.6l1-1.9l-14,0.2C39.8,51.3,39.9,51.3,37.9,51.9z"/>
				<path class="st0" d="M42.3,47.1c-0.2,0-0.4,0.1-0.6,0.1l-1.6,0.4c-0.2,0.1-0.3,0.1-0.4,0.1l-2.5,0.1L37.1,48l2.4,0
					c0.1,0,0.3,0,0.5,0.1l1.1,0.4c0.4,0.2,0.9,0.2,2.9,0.2l11.6,0.1l1.1-2h-8L42.3,47.1z"/>
				<path class="st0" d="M56.5,31.9l-6.2,0.2c-0.3,0-0.9,0.1-1.5,0.3c-0.6,0.2-1,0.3-1.2,0.3l-2.6,0.1L45,33.1l2.5,0
					c0.1,0,0.2,0,0.4,0.1c0.9,0.4,1.2,0.5,1.8,0.5l5.7,0.2L56.5,31.9z"/>
				<path class="st0" d="M55.4,34l-6.3,0.2c-0.2,0-0.5,0.1-0.8,0.1l-0.6,0.2c-0.3,0.1-0.5,0.1-0.6,0.2c-0.3,0.1-0.5,0.1-0.6,0.1
					l-2.6,0l-0.1,0.2l2.6,0.1c0.1,0,0.2,0,0.3,0.1l1.2,0.4c0.2,0.1,0.6,0.1,0.8,0.1l5.5,0.2L55.4,34z"/>
				<path class="st0" d="M53.1,38.3l-6.3,0.2c-0.3,0-1,0.2-1.8,0.4c-0.3,0.1-0.5,0.1-0.7,0.2l-2.6,0l-0.1,0.2l2.5,0.1
					c0.1,0,0.2,0,0.4,0.1l1.1,0.4c0.4,0.1,0.8,0.2,3,0.2l3.3,0.1L53.1,38.3z"/>
				<path class="st0" d="M54.3,36.1l-5.1,0.2c-1.4,0.1-1.6,0.1-2.1,0.2L45.6,37c-0.1,0-0.2,0-0.4,0l-2.2,0l-0.1,0.2l2.4,0.1
					c0.1,0,0.3,0,0.6,0.1c1.5,0.5,1.4,0.5,2.5,0.6l4.9,0.1L54.3,36.1z"/>
				<path class="st0" d="M48.3,26.2c2.6,1.5,3.4,2.3,5.1,3.8H53c-2-1.3-4.6-2.9-6.6-3.9c-10.7-5.4-25.5-9.3-22.7,0.9
					c0.2,0.7,0.4,1.4,0.8,2.2c-0.3-0.8-0.5-1.5-0.6-2.2c-2.1-9.7,11.2-5.8,20.9-0.7c2.2,1.1,4.3,2.4,6.1,3.8c-0.1,0-0.2,0-0.4,0.1
					c-1.5-1-3.1-1.9-4.8-2.7c-7.5-3.7-20.6-7.1-19-0.2c0.1,0.6,0.4,1.4,0.7,2.2c-0.3-0.8-0.5-1.5-0.6-2.2
					c-1.1-6.5,10.9-3.1,17.7,0.4c2,1,3.2,1.7,4.8,2.9c-0.2,0.1-0.4,0.1-0.4,0.1l-2.7,0.1l-0.1,0.2l2.6,0.1c0.1,0,0.3,0.1,0.5,0.1
					c0.9,0.4,1,0.4,2.4,0.5l5,0.2l0.9-1.8c-2.5-1.7-5.6-3.3-8.2-4.8c-8-4.3-16.6-7.9-21.7-7.9c-3.3,0-4.3,0.4-4.3,0.4
					c-3.6,1.4-4.4,4.7-2.9,10.9C17.5,12.9,33.4,17.5,48.3,26.2z"/>
			</g>
		</g>
		<g>
			<g>
				<path class="st0" d="M56.5,39.2l3.2-6.1h2l-3.2,6.1H56.5z"/>
				<path class="st0" d="M65.1,36.4l0.7-1.4l1-1.9h1.9l-3.2,6.1h-1.9l-0.4-3.3l-0.7,1.4l-1,1.9h-1.9l3.2-6.1h1.9L65.1,36.4z"/>
				<path class="st0" d="M69.5,33h5.6l-0.8,1.6h-1.8l-2.4,4.5h-2l2.4-4.5h-1.8L69.5,33z"/>
				<path class="st0" d="M72.8,39.2L76,33h5l-0.8,1.4h-3l-0.5,0.9h2.5l-0.7,1.4h-2.5l-0.5,1h3.1l-0.8,1.4H72.8z"/>
				<path class="st0" d="M84.4,39.2h-1.3l0.2-0.6c-0.5,0.4-1.3,0.7-2.2,0.7c-1.6,0-2.4-1-1.3-3.1c1-2,3-3.3,4.9-3.3
					c1.5,0,2.2,0.8,1.7,2.3h-1.9c0.1-0.5-0.1-0.8-0.6-0.8c-0.8,0-1.5,0.7-2.1,1.8c-0.5,0.9-0.6,1.7,0.4,1.7c0.4,0,1.1-0.3,1.4-0.7
					h-0.9l0.7-1.3h2.7L84.4,39.2z"/>
				<path class="st0" d="M88.5,37l-1.1,2.1h-2l3.2-6.1h2.9c2,0,2.4,0.6,1.8,1.7c-0.4,0.7-1,1.3-1.8,1.5c0.5,0.2,0.8,0.4,0.2,1.6
					C91.2,38.7,91,39,91.3,39l-0.1,0.2h-2c0-0.1,0.2-0.5,0.5-1.1C90,37.3,90,37,89.1,37H88.5z M89.2,35.7H90c0.6,0,1-0.2,1.3-0.6
					c0.2-0.4,0-0.6-0.5-0.6h-0.9L89.2,35.7z"/>
				<path class="st0" d="M91.9,39.2l3.2-6.1h2l-3.2,6.1H91.9z"/>
				<path class="st0" d="M98,33h5.6l-0.8,1.6H101l-2.4,4.5h-2l2.4-4.5h-1.8L98,33z"/>
				<path class="st0" d="M105.2,39.2h-2l1.2-2.2l-0.2-3.9h2.2l0,2.1l2.1-2.1h2.2l-4.3,3.8L105.2,39.2z"/>
				<path class="st0" d="M54.6,43.4l1.5-2.8h2.3L58,41.3h-1.4l-0.2,0.4h1.2l-0.3,0.7h-1.2l-0.2,0.4h1.4l-0.3,0.7H54.6z"/>
				<path class="st0" d="M58.4,43.4h-1l1.8-1.5L59,40.6h1l0,0.7l0.8-0.7h1L60.2,42l0.2,1.5h-1l0-0.8L58.4,43.4z"/>
				<path class="st0" d="M60.9,43.4l1.5-2.8h1.3c0.8,0,1,0.4,0.7,0.9c-0.3,0.6-0.9,1-1.7,1h-0.5l-0.5,0.9H60.9z M63,41.9
					c0.2,0,0.4-0.1,0.5-0.3c0.1-0.3-0.1-0.3-0.3-0.3H63l-0.3,0.6H63z"/>
				<path class="st0" d="M65.5,42.5l-0.5,1H64l1.5-2.8h1.3c0.9,0,1.1,0.3,0.8,0.8c-0.2,0.3-0.5,0.6-0.8,0.7c0.2,0.1,0.4,0.2,0.1,0.7
					c-0.2,0.4-0.3,0.5-0.2,0.5l0,0.1h-0.9c0-0.1,0.1-0.2,0.2-0.5c0.2-0.4,0.2-0.5-0.2-0.5H65.5z M65.8,41.9h0.4
					c0.3,0,0.5-0.1,0.6-0.3c0.1-0.2,0-0.3-0.2-0.3h-0.4L65.8,41.9z"/>
				<path class="st0" d="M67.4,43.4l1.5-2.8h2.3l-0.3,0.7h-1.4l-0.2,0.4h1.2l-0.3,0.7h-1.2l-0.2,0.4h1.4l-0.3,0.7H67.4z"/>
				<path class="st0" d="M73,41.5c0-0.1,0-0.2,0-0.2c0,0-0.1-0.1-0.2-0.1c-0.2,0-0.3,0.1-0.4,0.2c-0.2,0.4,1.5,0.2,1,1.2
					c-0.3,0.6-1,1-1.8,1c-0.7,0-1-0.4-0.7-0.9h0.9c0,0.1,0,0.2,0,0.2c0,0,0.1,0.1,0.2,0.1c0.2,0,0.4-0.1,0.5-0.2
					c0.2-0.4-1.5-0.1-1-1.2c0.3-0.6,1-0.9,1.7-0.9c0.8,0,0.9,0.4,0.7,0.9H73z"/>
				<path class="st0" d="M76.1,41.5c0-0.1,0-0.2,0-0.2c0,0-0.1-0.1-0.2-0.1c-0.2,0-0.3,0.1-0.4,0.2c-0.2,0.4,1.5,0.2,1,1.2
					c-0.3,0.6-1,1-1.8,1c-0.7,0-1-0.4-0.7-0.9h0.9c0,0.1,0,0.2,0,0.2c0,0,0.1,0.1,0.2,0.1c0.2,0,0.4-0.1,0.5-0.2
					c0.2-0.4-1.5-0.1-1-1.2c0.3-0.6,1-0.9,1.7-0.9c0.8,0,0.9,0.4,0.7,0.9H76.1z"/>
				<path class="st0" d="M78.3,43.4l1.5-2.8h0.9l-1.1,2.1h1.3l-0.3,0.7H78.3z"/>
				<path class="st0" d="M84.5,42c-0.5,1-1.4,1.5-2.3,1.5c-0.9,0-1.2-0.5-0.7-1.5c0.5-0.9,1.4-1.4,2.2-1.4
					C84.8,40.6,84.9,41.3,84.5,42z M82.5,42c-0.2,0.4-0.3,0.8,0.1,0.8c0.4,0,0.7-0.3,1-0.8c0.2-0.4,0.3-0.8-0.2-0.8
					C83,41.3,82.7,41.7,82.5,42z"/>
				<path class="st0" d="M87.2,43.5h-0.6l0.1-0.3c-0.2,0.2-0.6,0.3-1,0.3c-0.7,0-1.1-0.5-0.6-1.4c0.5-0.9,1.4-1.5,2.3-1.5
					c0.7,0,1,0.3,0.8,1h-0.9c0.1-0.2,0-0.4-0.3-0.4c-0.4,0-0.7,0.3-1,0.8c-0.2,0.4-0.3,0.8,0.2,0.8c0.2,0,0.5-0.1,0.6-0.3h-0.4
					l0.3-0.6H88L87.2,43.5z"/>
				<path class="st0" d="M88,43.4l1.5-2.8h0.9l-1.5,2.8H88z"/>
				<path class="st0" d="M92.3,41.5c0-0.1,0-0.2,0-0.2c0,0-0.1-0.1-0.2-0.1c-0.2,0-0.3,0.1-0.4,0.2c-0.2,0.4,1.5,0.2,1,1.2
					c-0.3,0.6-1,1-1.8,1c-0.7,0-1-0.4-0.7-0.9H91c0,0.1,0,0.2,0,0.2c0,0,0.1,0.1,0.2,0.1c0.2,0,0.4-0.1,0.5-0.2
					c0.2-0.4-1.5-0.1-1-1.2c0.3-0.6,1-0.9,1.7-0.9c0.8,0,0.9,0.4,0.7,0.9H92.3z"/>
				<path class="st0" d="M94.1,40.6h2.6l-0.4,0.7h-0.8l-1.1,2.1h-0.9l1.1-2.1h-0.8L94.1,40.6z"/>
				<path class="st0" d="M95.9,43.4l1.5-2.8h0.9l-1.5,2.8H95.9z"/>
				<path class="st0" d="M100.3,41.7c0.1-0.3,0-0.5-0.3-0.5c-0.3,0-0.7,0.3-0.9,0.8c-0.2,0.4-0.3,0.8,0.2,0.8c0.3,0,0.5-0.2,0.7-0.5
					h0.9c-0.5,0.7-1.2,1.2-1.9,1.2c-0.9,0-1.2-0.6-0.7-1.5c0.5-0.9,1.4-1.5,2.2-1.5c0.9,0,1.1,0.4,0.8,1.1H100.3z"/>
				<path class="st0" d="M103.5,41.5c0-0.1,0-0.2,0-0.2c0,0-0.1-0.1-0.2-0.1c-0.2,0-0.3,0.1-0.4,0.2c-0.2,0.4,1.5,0.2,1,1.2
					c-0.3,0.6-1,1-1.8,1c-0.7,0-1-0.4-0.7-0.9h0.9c0,0.1,0,0.2,0,0.2c0,0,0.1,0.1,0.2,0.1c0.2,0,0.4-0.1,0.5-0.2
					c0.2-0.4-1.5-0.1-1-1.2c0.3-0.6,1-0.9,1.7-0.9c0.8,0,0.9,0.4,0.7,0.9H103.5z"/>
			</g>
		</g>
	</g>
</g>
</svg>
