<?xml version="1.0" encoding="utf-8"?>
<!-- Generator: Adobe Illustrator 21.1.0, SVG Export Plug-In . SVG Version: 6.00 Build 0)  -->
<svg version="1.1" id="graphic" xmlns="http://www.w3.org/2000/svg" xmlns:xlink="http://www.w3.org/1999/xlink" x="0px" y="0px"
	 viewBox="0 0 111.5 76.2" style="enable-background:new 0 0 111.5 76.2;" xml:space="preserve">
<style type="text/css">
	.st0{fill:#FFFFFF;}
</style>
<g>
	<g>
		<g>
			<g>
				<path class="st0" d="M11.2,62.7c-1.5,0.5-2,0.5-3.1,0.6l-3.9,0.1L4,63.7l4.6,0.1c0.3,0,0.6,0.1,1.2,0.3c2.1,0.7,2.5,0.8,3.2,0.9
					l10.6,0.5l2.1-3.9L14,62C13.3,62.1,12.5,62.2,11.2,62.7z"/>
				<path class="st0" d="M10,66.4l-2.7,0.7c-0.2,0.1-0.5,0.1-0.8,0.1l-4.5,0.1l-0.2,0.5l4.6,0.1c0.3,0,0.6,0.1,1.2,0.3
					c0.1,0.1,0.3,0.1,1,0.4c0.5,0.1,0.8,0.2,1.1,0.3c0.7,0.2,1.2,0.3,1.9,0.3h10l1.8-3.4l-11.7,0.4C11.3,66.1,10.7,66.2,10,66.4z"/>
				<path class="st0" d="M13.9,56.1l2.1,0.7c0.3,0.1,1.2,0.3,1.6,0.3l10.3,0.4l2.1-3.8l-11.7,0.4c-0.5,0-1,0.1-1.4,0.2l-2.7,0.8
					c-0.5,0.1-1.1,0.2-1.9,0.2H8.7l-0.3,0.5l4.6,0.2C13.2,55.9,13.5,56,13.9,56.1z"/>
				<path class="st0" d="M16.2,52.1c2.2,0.8,2.6,0.9,3.5,1L30,53.5l2.1-3.8l-12,0.5c-0.4,0-0.9,0.1-1.4,0.3l-1,0.3
					c-1,0.3-2,0.5-2.2,0.5l-4.7,0.1l-0.3,0.5l4.7,0.1C15.5,51.9,15.8,52,16.2,52.1z"/>
				<path class="st0" d="M16.2,58.1c-0.6,0-1,0.1-1.5,0.2l-2.8,0.8c-0.3,0.1-0.5,0.1-0.6,0.1l-4.8,0.1l-0.3,0.5l3.8,0.1
					c1.1,0.1,1.4,0.1,2,0.3l1.9,0.6c0.5,0.2,1,0.3,1.6,0.3l10.3,0.4l2-3.8L16.2,58.1z"/>
				<path class="st0" d="M24.4,36l2.3,0.8c0.8,0.3,1.5,0.3,5.5,0.5l6.5,0.3l2-3.8L29,34c-0.6,0-1.8,0.3-2.9,0.6
					c-1,0.3-1.8,0.5-2.1,0.5l-4.7,0.1l-0.3,0.4l4.5,0.1C23.8,35.8,24.1,35.9,24.4,36z"/>
				<path class="st0" d="M28.1,32.5c1.5,0.5,1.9,0.5,2.7,0.6l10,0.4l2.1-3.8L31.3,30c-0.5,0-1.9,0.3-2.7,0.5
					c-1.3,0.4-2.1,0.6-2.4,0.6l-4.9,0.1l-0.2,0.5l4.5,0.1C26.1,31.8,26.8,32,28.1,32.5z"/>
				<path class="st0" d="M29,28.1l1.4,0.5c0.7,0.3,1.5,0.5,2.3,0.5l10.3,0.4l1.7-3.4l-9.8-0.1c-1,0-2.3,0.1-2.8,0.3L29.1,27
					c-0.4,0.1-0.6,0.1-0.9,0.1l-4.7,0.1l-0.3,0.5l4.3,0.1C28,27.8,28.5,27.9,29,28.1z"/>
				<path class="st0" d="M23.7,40.5c1.1,0.5,1.7,0.6,2.7,0.6l1,0.1l9,0.3l2.1-3.8L26.9,38c-0.5,0.1-0.8,0.1-1.2,0.2l-3,0.8
					c-0.3,0.1-0.5,0.1-0.7,0.1l-4.9,0.1l-0.2,0.4l4,0.1C21.9,39.8,22.4,40,23.7,40.5z"/>
				<path class="st0" d="M21.7,44.6c0.9,0.3,1.4,0.5,2.5,0.5l10.1,0.5l2.1-3.9L24.7,42c-0.5,0-1.1,0.1-1.7,0.3l-2.1,0.6L20,43.1
					c-0.1,0.1-0.3,0.1-0.3,0.1l-4.8,0.1l-0.2,0.5l4.5,0.1C19.7,43.9,20.5,44.1,21.7,44.6z"/>
				<path class="st0" d="M19.1,48.4c1.3,0.5,2.3,0.6,2.8,0.7l10.1,0.4l2.1-3.8l-11.3,0.4c-0.8,0-0.6,0-2.7,0.5L18.5,47
					c-0.4,0.1-0.7,0.2-0.9,0.2l-4.8,0.1l-0.2,0.4l4.4,0.1C17.5,47.9,17.6,47.9,19.1,48.4z"/>
				<path class="st0" d="M38.8,43.7l2.8,0.1c1.4,0.1,2.3,0.1,2.5,0.2l2.7,0.9c0.3,0.1,0.5,0.1,1.8,0.1c0.9,0.1,1.8,0.1,2.7,0.1
					l23.4,0.3l2-3.8H59.9L48.5,42c-0.6,0-1.6,0.3-2.7,0.6c-1,0.4-1.8,0.6-2.2,0.6L39,43.3L38.8,43.7z"/>
				<path class="st0" d="M43,35.7l4.4,0.1c0.4,0.1,0.8,0.1,1.3,0.3l2.4,0.8c0.7,0.3,1.5,0.4,2.3,0.4H79l2-3.8L53.3,34
					c-0.8,0-1.7,0.2-4.1,1c-0.5,0.1-0.9,0.3-1.2,0.3l-4.7,0.1L43,35.7z"/>
				<path class="st0" d="M45.1,31.8l4.5,0.1c0.4,0,1.2,0.2,2.3,0.6c0.8,0.3,1.7,0.5,2.3,0.5l26.9,0.4l2.1-3.9l-27.8,0.5
					c-0.5,0-0.9,0.1-1.4,0.2l-3,0.8c-0.4,0.1-0.7,0.2-1,0.2l-4.7,0.1L45.1,31.8z"/>
				<path class="st0" d="M40.9,39.7l4.6,0.1c0.2,0.1,0.5,0.1,0.9,0.3l2.3,0.8c0.4,0.1,0.7,0.2,1.1,0.2l10.6,0.4l2-3.8L50.7,38
					c-0.7,0-1.3,0.1-4,1c-0.3,0.1-0.6,0.2-0.8,0.2l-4.8,0.1L40.9,39.7z"/>
				<path class="st0" d="M53.1,28.2c0.9,0.3,2.5,0.8,3,0.8l27.2,0.3l1.7-3.4H61.2c-2.8,0-3.4,0-3.8,0.1c-0.7,0.1-1.5,0.1-1.7,0.2
					L53,27c-0.5,0.1-1,0.2-1.8,0.2l-3.7,0.1l-0.3,0.5l4.8,0.1C52.2,27.9,52.3,27.9,53.1,28.2z"/>
				<path class="st0" d="M72.5,49.6L45,50.1c-1.1,0-1.6,0.1-3.2,0.6L40.6,51c-0.5,0.1-0.9,0.3-1.1,0.3l-4.8,0.1l-0.1,0.5l4.7,0.1
					c0.7,0,1.2,0.2,2.1,0.7c1.2,0.6,1.6,0.8,2.3,0.8h26.9L72.5,49.6z"/>
				<path class="st0" d="M74.7,45.5L46.8,46c-0.6,0-1.7,0.3-2.9,0.6c-1.7,0.5-2.3,0.6-2.9,0.6h-4.1l-0.3,0.5l4.7,0.1
					c0.3,0,1.4,0.3,3,0.9c0.5,0.2,0.8,0.3,1.2,0.3l27.1,0.4L74.7,45.5z"/>
				<path class="st0" d="M34.7,66.2c-0.3,0.1-0.5,0.1-0.6,0.2l-1.4,0.4c-0.8,0.3-1.6,0.5-1.9,0.5l-4.7,0.1L26,67.8l4.7,0.1
					c0.3,0,0.6,0.1,0.9,0.2l2,0.7c0.6,0.2,1,0.3,1.9,0.3h1.6h25.1l1.8-3.5l-27.7,0.5C35.9,66.1,35.4,66.1,34.7,66.2z"/>
				<path class="st0" d="M39.9,54.5c-1.4,0.5-2.2,0.6-2.5,0.7l-4.8,0.1l-0.2,0.5l4.6,0.1c0.3,0,0.6,0.1,1,0.2l1.2,0.5
					c0.9,0.3,1.6,0.5,2.1,0.5l10.5,0.5l2.1-3.8l-11.9,0.4C41.6,54.1,40.8,54.3,39.9,54.5z"/>
				<path class="st0" d="M51.7,57.6l-11.6,0.5c-0.5,0-1.1,0.1-1.7,0.3l-2.5,0.7c-0.3,0.1-1,0.1-1.9,0.1l-3.6,0.1l-0.1,0.4l2.7,0.1
					c2,0.1,2.4,0.1,3.2,0.3l1.9,0.7c0.4,0.1,0.8,0.2,1,0.2l27.2,0.4l2-3.8L51.7,57.6z"/>
				<path class="st0" d="M35.3,62.7c-1.1,0.4-1.8,0.6-2.2,0.6l-4.7,0.1l-0.2,0.4l4.7,0.1c0.4,0,1.2,0.3,2.3,0.7
					c0.4,0.1,0.6,0.2,0.8,0.3l1,0.2h0.3l27,0.3l2-3.8l-28,0.5C37.7,62,36.3,62.4,35.3,62.7z"/>
				<path class="st0" d="M78.4,56.1c2.9,1,2.7,1,4.9,1l9.1,0.3l2-3.8L82.8,54c-0.5,0.1-1.1,0.1-1.7,0.3l-0.8,0.2l-1.9,0.6
					c-0.3,0.1-0.4,0.1-0.5,0.1l-4.8,0.1l-0.3,0.5l4.5,0.1C77.6,55.8,78,55.9,78.4,56.1z"/>
				<path class="st0" d="M96.6,49.6l-11.8,0.5c-0.4,0-1,0.1-1.9,0.4L80.7,51c-0.3,0.1-0.6,0.2-0.7,0.2l-4.7,0.1
					c-0.2,0.1-0.2,0.2-0.3,0.5l4.1,0.1c0.6,0,1,0.1,1.7,0.3l1.6,0.6c0.6,0.2,1.8,0.4,3.3,0.4l8.9,0.3L96.6,49.6z"/>
				<path class="st0" d="M98.7,45.6L87,46.1c-0.8,0-2.2,0.3-4.1,1c-0.3,0.1-0.6,0.2-0.7,0.2l-5,0.1l-0.1,0.4l4.7,0.1
					c0.3,0,1.4,0.3,3,0.9c0.5,0.1,0.8,0.3,1.2,0.3l10.7,0.5L98.7,45.6z"/>
				<path class="st0" d="M77.1,62.3l-2.8,0.8c-0.3,0.1-0.6,0.1-0.8,0.1l-4.8,0.1l-0.2,0.5l4.5,0.1c0.4,0,0.8,0.1,1.2,0.2l1.8,0.6
					c0.6,0.3,1.1,0.3,2.2,0.3l2.3,0.1l22.6,0.3l2.1-3.8L78.9,62C78.2,62,77.7,62.1,77.1,62.3z"/>
				<path class="st0" d="M72.2,67.1c-0.3,0.1-0.6,0.1-0.7,0.1l-4.9,0.2l-0.1,0.4l4.5,0.1c0.3,0,0.6,0,0.8,0.1l2.2,0.7
					c0.6,0.3,1.2,0.3,2.5,0.3h3.1h21.7l1.8-3.5l-26.3,0.5C75.8,66.1,75.9,66.1,72.2,67.1z"/>
				<path class="st0" d="M80.6,58c-0.4,0.1-0.8,0.1-1.2,0.2l-3,0.8c-0.3,0.1-0.6,0.1-0.8,0.1L71,59.3l-0.3,0.5l4.5,0.1
					c0.3,0,0.6,0.1,0.9,0.2l2.1,0.7c0.8,0.3,1.6,0.4,5.4,0.4l21.8,0.3l2-3.8H92.3L80.6,58z"/>
				<path class="st0" d="M107.2,29.5l-11.6,0.4c-0.6,0-1.7,0.3-2.8,0.6c-1,0.3-1.8,0.5-2.2,0.5l-4.8,0.1l-0.3,0.5l4.7,0.1
					c0.2,0,0.5,0.1,0.8,0.2c1.7,0.8,2.2,0.9,3.4,1l10.7,0.4L107.2,29.5z"/>
				<path class="st0" d="M105.1,33.6L93.2,34c-0.4,0-0.9,0.1-1.5,0.3l-1,0.3c-0.5,0.1-0.9,0.3-1,0.3c-0.5,0.1-0.9,0.3-1.1,0.3
					l-4.8,0.1l-0.3,0.5l4.8,0.1c0.1,0,0.4,0,0.6,0.1l2.3,0.8c0.5,0.1,1,0.3,1.6,0.3l10.4,0.4L105.1,33.6z"/>
				<path class="st0" d="M100.8,41.6L88.9,42c-0.6,0-1.9,0.4-3.4,0.8c-0.5,0.2-1,0.3-1.2,0.3l-4.9,0.1l-0.2,0.4l4.7,0.2
					c0.2,0,0.5,0.1,0.8,0.2l2.1,0.7c0.7,0.3,1.5,0.3,5.6,0.5l6.3,0.2L100.8,41.6z"/>
				<path class="st0" d="M103,37.5l-9.6,0.4c-2.6,0.1-2.9,0.1-3.9,0.5l-2.8,0.8c-0.1,0-0.4,0.1-0.8,0.1l-4.2,0.1l-0.3,0.5l4.6,0.1
					c0.3,0,0.6,0.1,1,0.2c2.8,1,2.7,1,4.7,1l9.3,0.3L103,37.5z"/>
				<path class="st0" d="M91.7,18.9c4.9,2.8,6.4,4.4,9.6,7.1h-0.7c-3.7-2.4-8.7-5.5-12.4-7.3C68.2,8.5,40.3,1,45.7,20.3
					c0.4,1.3,0.8,2.6,1.4,4.1c-0.5-1.5-0.9-2.9-1.2-4.1c-4-18.2,21-11,39.1-1.3c4.1,2.2,8,4.6,11.5,7.1c-0.2,0-0.4,0.1-0.7,0.1
					c-2.8-1.8-5.8-3.6-8.9-5.1C73,14.3,48.4,7.8,51.4,20.8c0.3,1.2,0.7,2.6,1.3,4c-0.5-1.5-0.9-2.9-1.1-4.1
					c-2-12.1,20.5-5.8,33.2,0.7c3.7,1.9,6,3.2,9,5.4c-0.4,0.1-0.7,0.2-0.8,0.2l-5,0.1l-0.3,0.5l4.9,0.1c0.2,0,0.5,0.1,0.9,0.3
					c1.7,0.8,1.9,0.8,4.5,0.9l9.3,0.3l1.7-3.4c-4.7-3.2-10.4-6.2-15.5-9C78.6,8.8,62.5,2.1,52.9,2.1c-6.3,0-8,0.7-8,0.7
					c-6.7,2.5-8.3,8.8-5.5,20.5C34-6,63.7,2.6,91.7,18.9z"/>
			</g>
		</g>
	</g>
</g>
</svg>
